<?xml version="1.0" encoding="UTF-8" standalone="no"?>
<svg
   height="16"
   viewBox="0 0 16 16"
   width="16"
   version="1.1"
   id="svg1"
   sodipodi:docname="CharacterBody3D.svg"
   inkscape:export-filename="CharacterBody3D.png"
   inkscape:export-xdpi="96"
   inkscape:export-ydpi="96"
   inkscape:version="1.3.2 (091e20e, 2023-11-25, custom)"
   xmlns:inkscape="http://www.inkscape.org/namespaces/inkscape"
   xmlns:sodipodi="http://sodipodi.sourceforge.net/DTD/sodipodi-0.dtd"
   xmlns="http://www.w3.org/2000/svg"
   xmlns:svg="http://www.w3.org/2000/svg">
  <defs
     id="defs1" />
  <sodipodi:namedview
     id="namedview1"
     pagecolor="#ffffff"
     bordercolor="#000000"
     borderopacity="0.25"
     inkscape:showpageshadow="2"
     inkscape:pageopacity="0.0"
     inkscape:pagecheckerboard="0"
     inkscape:deskcolor="#d1d1d1"
     inkscape:zoom="45.254834"
     inkscape:cx="8.2201163"
     inkscape:cy="7.9880969"
     inkscape:window-width="1920"
     inkscape:window-height="1017"
     inkscape:window-x="-8"
     inkscape:window-y="-8"
     inkscape:window-maximized="1"
     inkscape:current-layer="svg1" />
  <path
     d="M6.492 1a1 1 0 0 0-1 1v3a1 1 0 0 0 1 1h1v.99a1 1 0 0 0-.316.062l-2.051.684-.684-2.051a1 1 0 0 0-1.898.631l1 3a1 1 0 0 0 1.265.633l1.684-.56v.61c0 .041.019.076.024.116l-4.579 3.052a1 1 0 1 0 1.11 1.664l5.056-3.37 1.495 2.986a1 1 0 0 0 1.21.502l3-1a1 1 0 1 0-.632-1.897l-2.178.725-.975-1.951a.981.981 0 0 0 .469-.827V9h1.383l.722 1.448a1 1 0 1 0 1.79-.895l-1-2A1 1 0 0 0 12.492 7h-3V6h1a1 1 0 0 0 1-1V2a1 1 0 0 0-1-1zm0 2h1v2h-1z"
     fill="#fc7f7f"
     id="path1" />
  <path
     style="fill:#ffff00;stroke-width:0.0220971"
     d="M 7.869584,1.005849 C 7.327333,1.0161411 6.7821177,0.98668132 6.2418229,1.0369662 5.7954949,1.1409813 5.4704675,1.5923045 5.5051527,2.0481237 c -0.022054,1.0460488 -0.034112,2.0938166 0.012257,3.1392538 0.075336,0.4783059 0.5453265,0.8339534 1.0239644,0.8073781 0.3201214,0.00813 0.6403983,0.00324 0.9605871,0.0046 0,0.3295573 0,0.6591145 0,0.988672 C 7.0968257,7.057993 6.7135659,7.2226315 6.3202802,7.3399091 5.9282664,7.4640789 5.5314723,7.6146093 5.14068,7.7175371 4.8399373,6.9841982 4.6548972,6.2067506 4.3353448,5.4810271 4.1067275,5.0640895 3.5378103,4.8927668 3.1075323,5.0861711 2.6940857,5.2454606 2.4267127,5.7139244 2.5112131,6.1492914 2.8491396,7.2510731 3.2108648,8.3461915 3.6000608,9.4309242 3.7855063,9.8266464 4.2585979,10.090128 4.6909698,9.9670378 5.2935594,9.8111417 5.8797376,9.5740152 6.4745329,9.4083527 c 0.016081,0.2406209 0.014988,0.4821039 0.022011,0.7231183 -1.562397,1.050438 -3.1432922,2.074018 -4.6863087,3.152892 -0.3781502,0.326939 -0.4189478,0.96158 -0.090503,1.339765 0.3013359,0.396996 0.922329,0.491444 1.322243,0.192012 1.6956438,-1.092754 3.3630365,-2.239854 5.0528529,-3.334373 0.5561057,1.03181 1.0395347,2.102189 1.6126558,3.124796 0.2564197,0.364622 0.7674951,0.469285 1.1711441,0.309349 1.041839,-0.330898 2.079199,-0.67763 3.108829,-1.044595 0.537445,-0.271181 0.697346,-1.070233 0.28532,-1.515636 -0.265612,-0.317431 -0.734611,-0.457691 -1.120715,-0.285228 -0.720915,0.223429 -1.434501,0.469545 -2.150992,0.706583 -0.325533,-0.651222 -0.651047,-1.302453 -0.976544,-1.953693 0.313812,-0.192452 0.490167,-0.564345 0.459248,-0.9288544 0.0024,-0.296635 8.57e-4,-0.5932845 0.0013,-0.8899257 0.463995,0 0.927991,0 1.391987,0 0.280072,0.5335843 0.516572,1.0922591 0.834168,1.6049161 0.306644,0.429784 0.975961,0.509089 1.383352,0.180287 0.388618,-0.278064 0.507981,-0.8606873 0.258605,-1.2683385 -0.340005,-0.7049645 -0.67537,-1.4138744 -1.057121,-2.097281 -0.200984,-0.314746 -0.592266,-0.4482661 -0.95263,-0.4214111 -0.950826,-0.015139 -1.901826,-0.00677 -2.8527307,-0.00901 0,-0.3314563 0,-0.6629126 0,-0.9943689 0.4235506,-0.012606 0.8538627,0.029784 1.2729567,-0.040094 0.472282,-0.1242417 0.762324,-0.622779 0.727716,-1.0953468 0.0093,-0.9985044 0.01406,-1.9978371 -0.0153,-2.9959375 C 11.428969,1.3922149 10.978981,0.98645122 10.494865,1.0188829 9.6201122,0.99585032 8.744569,1.0096511 7.869584,1.005849 Z M 6.9882037,2.999248 c 0.1675695,0.00199 0.3351393,0.00397 0.5027088,0.00596 0,0.6629126 0,1.3258252 0,1.9887378 -0.3351388,0.00398 -0.6702781,0.00793 -1.0054175,0.011869 0,-0.6708249 0,-1.34165 0,-2.0124749 0.1675695,0.00197 0.3351392,0.00394 0.5027087,0.00591 z"
     id="path6" />
</svg>
