<?xml version="1.0" encoding="UTF-8" standalone="no"?>
<svg
   width="16"
   height="16"
   version="1.1"
   viewBox="0 0 16 16"
   id="svg1"
   sodipodi:docname="yellow_node.svg"
   inkscape:version="1.3.2 (091e20e, 2023-11-25, custom)"
   xmlns:inkscape="http://www.inkscape.org/namespaces/inkscape"
   xmlns:sodipodi="http://sodipodi.sourceforge.net/DTD/sodipodi-0.dtd"
   xmlns="http://www.w3.org/2000/svg"
   xmlns:svg="http://www.w3.org/2000/svg">
  <defs
     id="defs1" />
  <sodipodi:namedview
     id="namedview1"
     pagecolor="#ffffff"
     bordercolor="#000000"
     borderopacity="0.25"
     inkscape:showpageshadow="2"
     inkscape:pageopacity="0.0"
     inkscape:pagecheckerboard="0"
     inkscape:deskcolor="#d1d1d1"
     inkscape:zoom="51.3125"
     inkscape:cx="7.9902558"
     inkscape:cy="8"
     inkscape:window-width="1920"
     inkscape:window-height="1017"
     inkscape:window-x="-8"
     inkscape:window-y="-8"
     inkscape:window-maximized="1"
     inkscape:current-layer="svg1" />
  <path
     d="m8 2a6 6 0 0 0-6 6 6 6 0 0 0 6 6 6 6 0 0 0 6-6 6 6 0 0 0-6-6zm0 2a4 4 0 0 1 4 4 4 4 0 0 1-4 4 4 4 0 0 1-4-4 4 4 0 0 1 4-4z"
     fill="#35d4f4"
     id="path1" />
  <path
     style="fill:#ffff00;stroke-width:0.0194884"
     d="M 7.8937653,2.0094397 C 6.8469151,2.0122351 5.8079698,2.3259225 4.9106917,2.8597608 3.5379413,3.6825956 2.5138602,5.0711866 2.1609864,6.6351462 1.9894546,7.3250974 1.9761695,8.0457162 2.0470157,8.7501205 2.1454144,9.4702996 2.3565604,10.1775 2.7101562,10.814762 c 0.8089889,1.565641 2.3596675,2.712863 4.0843017,3.060352 0.6846799,0.148878 1.3953323,0.149463 2.0876235,0.05756 1.4655696,-0.213096 2.8361776,-0.994466 3.7660626,-2.147273 1.036192,-1.24902 1.510833,-2.9334488 1.301384,-4.5406116 C 13.724262,5.3784396 12.557618,3.6598649 10.911274,2.7543392 10.122933,2.317908 9.2327836,2.0575576 8.332267,2.0145004 8.1861691,2.0091983 8.0399443,2.0081075 7.8937653,2.0094397 Z m 0.147267,1.9994671 c 1.4205373,-0.016284 2.7999017,0.8258422 3.4671257,2.0746652 0.360021,0.6569776 0.530395,1.4147619 0.477226,2.1627358 -0.03373,0.76775 -0.319629,1.5204266 -0.775016,2.1368222 -0.642841,0.875302 -1.6599965,1.466767 -2.7396638,1.584975 -0.4869034,0.03203 -0.9838367,0.0447 -1.4571155,-0.09425 C 5.7710992,11.566216 4.7078008,10.623982 4.2636648,9.4221225 3.8311202,8.2857514 3.9410319,6.9515163 4.5886114,5.9172884 5.2976581,4.7334591 6.6579393,3.9677778 8.0410323,4.0089068 Z"
     id="path2" />
</svg>
